<mxfile host="app.diagrams.net" agent="Mozilla/5.0 (Windows NT 10.0; Win64; x64) AppleWebKit/537.36 (KHTML, like Gecko) Chrome/140.0.0.0 Safari/537.36" version="28.2.5">
  <diagram name="Página-1" id="yxLmcArf8ApV7wOcArgR">
    <mxGraphModel dx="872" dy="439" grid="1" gridSize="10" guides="1" tooltips="1" connect="1" arrows="1" fold="1" page="1" pageScale="1" pageWidth="827" pageHeight="1169" math="0" shadow="0">
      <root>
        <mxCell id="0" />
        <mxCell id="1" parent="0" />
        <mxCell id="MZe7glPEBlxegg6NGC8d-1" value="&lt;div&gt;En espera&lt;/div&gt;&lt;div&gt;Led1 = ON&lt;/div&gt;&lt;div&gt;Led2 = OFF&lt;/div&gt;&lt;div&gt;Led3 = OFF&lt;/div&gt;&lt;div&gt;Motor =OFF&lt;/div&gt;&lt;div&gt;Pun&lt;font&gt;z&lt;span style=&quot;background-color: rgb(255, 255, 255); color: rgb(0, 29, 53); font-family: &amp;quot;Google Sans&amp;quot;, Arial, sans-serif; text-align: left;&quot;&gt;ó&lt;/span&gt;&lt;/font&gt;&lt;span style=&quot;background-color: transparent; color: light-dark(rgb(0, 0, 0), rgb(255, 255, 255));&quot;&gt;n = OFF&lt;/span&gt;&lt;/div&gt;&lt;div&gt;&lt;span style=&quot;background-color: transparent; color: light-dark(rgb(0, 0, 0), rgb(255, 255, 255));&quot;&gt;Led4&amp;nbsp; = OFF&lt;/span&gt;&lt;/div&gt;&lt;div&gt;&lt;span style=&quot;background-color: transparent; color: light-dark(rgb(0, 0, 0), rgb(255, 255, 255));&quot;&gt;Led5 = OFF&lt;/span&gt;&lt;/div&gt;&lt;div&gt;&lt;span style=&quot;background-color: transparent; color: light-dark(rgb(0, 0, 0), rgb(255, 255, 255));&quot;&gt;Led6 = OFF&lt;/span&gt;&lt;/div&gt;&lt;div&gt;&lt;span style=&quot;background-color: transparent; color: light-dark(rgb(0, 0, 0), rgb(255, 255, 255));&quot;&gt;&lt;br&gt;&lt;/span&gt;&lt;/div&gt;" style="ellipse;whiteSpace=wrap;html=1;" parent="1" vertex="1">
          <mxGeometry x="290" y="30" width="120" height="160" as="geometry" />
        </mxCell>
        <mxCell id="MZe7glPEBlxegg6NGC8d-3" value="Alimentacion_L&lt;div&gt;Led1 = OFF&lt;/div&gt;&lt;div&gt;Led2 = ON&lt;/div&gt;&lt;div&gt;Led3 = OFF&lt;/div&gt;&lt;div&gt;Motor = ON&lt;/div&gt;&lt;div&gt;Punz&lt;span style=&quot;background-color: rgb(255, 255, 255); color: rgb(0, 29, 53); font-family: &amp;quot;Google Sans&amp;quot;, Arial, sans-serif; text-align: left;&quot;&gt;ó&lt;/span&gt;&lt;span style=&quot;color: light-dark(rgb(0, 0, 0), rgb(255, 255, 255)); background-color: transparent;&quot;&gt;n = OFF&lt;/span&gt;&lt;/div&gt;&lt;div&gt;&lt;div&gt;&lt;span style=&quot;background-color: transparent; color: light-dark(rgb(0, 0, 0), rgb(255, 255, 255));&quot;&gt;Led4&amp;nbsp; = ON&lt;/span&gt;&lt;/div&gt;&lt;div&gt;&lt;span style=&quot;background-color: transparent; color: light-dark(rgb(0, 0, 0), rgb(255, 255, 255));&quot;&gt;Led5 = OFF&lt;/span&gt;&lt;/div&gt;&lt;div&gt;&lt;span style=&quot;background-color: transparent; color: light-dark(rgb(0, 0, 0), rgb(255, 255, 255));&quot;&gt;Led6 = OFF&lt;/span&gt;&lt;/div&gt;&lt;/div&gt;" style="ellipse;whiteSpace=wrap;html=1;" parent="1" vertex="1">
          <mxGeometry x="389.5" y="240" width="120" height="170" as="geometry" />
        </mxCell>
        <mxCell id="X-DnCRYXjDNg1M-mOFa8-1" value="Alimentacion_P&lt;div&gt;Led1 = OFF&lt;/div&gt;&lt;div&gt;Led2 = ON&lt;/div&gt;&lt;div&gt;Led3 = OFF&lt;/div&gt;&lt;div&gt;Motor = ON&lt;/div&gt;&lt;div&gt;Punz&lt;span style=&quot;background-color: rgb(255, 255, 255); color: rgb(0, 29, 53); font-family: &amp;quot;Google Sans&amp;quot;, Arial, sans-serif; text-align: left;&quot;&gt;ó&lt;/span&gt;&lt;span style=&quot;color: light-dark(rgb(0, 0, 0), rgb(255, 255, 255)); background-color: transparent;&quot;&gt;n = OFF&lt;/span&gt;&lt;/div&gt;&lt;div&gt;&lt;div&gt;&lt;span style=&quot;background-color: transparent; color: light-dark(rgb(0, 0, 0), rgb(255, 255, 255));&quot;&gt;Led4&amp;nbsp; = OFF&lt;/span&gt;&lt;/div&gt;&lt;div&gt;&lt;span style=&quot;background-color: transparent; color: light-dark(rgb(0, 0, 0), rgb(255, 255, 255));&quot;&gt;Led5 = OFF&lt;/span&gt;&lt;/div&gt;&lt;div&gt;&lt;span style=&quot;background-color: transparent; color: light-dark(rgb(0, 0, 0), rgb(255, 255, 255));&quot;&gt;Led6 = ON&lt;/span&gt;&lt;/div&gt;&lt;/div&gt;" style="ellipse;whiteSpace=wrap;html=1;" parent="1" vertex="1">
          <mxGeometry x="690" y="10" width="120" height="200" as="geometry" />
        </mxCell>
        <mxCell id="X-DnCRYXjDNg1M-mOFa8-2" value="Alimentacion_M&lt;div&gt;Led1 = OFF&lt;/div&gt;&lt;div&gt;Led2 = ON&lt;/div&gt;&lt;div&gt;Led3 = OFF&lt;/div&gt;&lt;div&gt;Motor = ON&lt;/div&gt;&lt;div&gt;Punz&lt;span style=&quot;background-color: rgb(255, 255, 255); color: rgb(0, 29, 53); font-family: &amp;quot;Google Sans&amp;quot;, Arial, sans-serif; text-align: left;&quot;&gt;ó&lt;/span&gt;&lt;span style=&quot;color: light-dark(rgb(0, 0, 0), rgb(255, 255, 255)); background-color: transparent;&quot;&gt;n = OFF&lt;/span&gt;&lt;/div&gt;&lt;div&gt;&lt;div&gt;&lt;span style=&quot;background-color: transparent; color: light-dark(rgb(0, 0, 0), rgb(255, 255, 255));&quot;&gt;Led4&amp;nbsp; = OFF&lt;/span&gt;&lt;/div&gt;&lt;div&gt;&lt;span style=&quot;background-color: transparent; color: light-dark(rgb(0, 0, 0), rgb(255, 255, 255));&quot;&gt;Led5 = ON&lt;/span&gt;&lt;/div&gt;&lt;div&gt;&lt;span style=&quot;background-color: transparent; color: light-dark(rgb(0, 0, 0), rgb(255, 255, 255));&quot;&gt;Led6 = OFF&lt;/span&gt;&lt;/div&gt;&lt;/div&gt;" style="ellipse;whiteSpace=wrap;html=1;" parent="1" vertex="1">
          <mxGeometry x="560" y="170" width="120" height="190" as="geometry" />
        </mxCell>
        <mxCell id="-_c5u42rYfLY3oZPvqTj-1" value="" style="endArrow=classic;html=1;rounded=0;exitX=1;exitY=0.5;exitDx=0;exitDy=0;entryX=0;entryY=0.5;entryDx=0;entryDy=0;" parent="1" source="MZe7glPEBlxegg6NGC8d-1" target="X-DnCRYXjDNg1M-mOFa8-1" edge="1">
          <mxGeometry width="50" height="50" relative="1" as="geometry">
            <mxPoint x="450" y="80" as="sourcePoint" />
            <mxPoint x="540" y="80" as="targetPoint" />
          </mxGeometry>
        </mxCell>
        <mxCell id="-_c5u42rYfLY3oZPvqTj-2" value="" style="endArrow=classic;html=1;rounded=0;" parent="1" source="MZe7glPEBlxegg6NGC8d-1" target="X-DnCRYXjDNg1M-mOFa8-2" edge="1">
          <mxGeometry width="50" height="50" relative="1" as="geometry">
            <mxPoint x="420" y="110" as="sourcePoint" />
            <mxPoint x="500" y="100" as="targetPoint" />
          </mxGeometry>
        </mxCell>
        <mxCell id="-_c5u42rYfLY3oZPvqTj-3" value="" style="endArrow=classic;html=1;rounded=0;exitX=0.65;exitY=1.013;exitDx=0;exitDy=0;exitPerimeter=0;entryX=0.35;entryY=0.063;entryDx=0;entryDy=0;entryPerimeter=0;" parent="1" source="MZe7glPEBlxegg6NGC8d-1" target="MZe7glPEBlxegg6NGC8d-3" edge="1">
          <mxGeometry width="50" height="50" relative="1" as="geometry">
            <mxPoint x="340" y="190" as="sourcePoint" />
            <mxPoint x="390" y="140" as="targetPoint" />
          </mxGeometry>
        </mxCell>
        <mxCell id="-_c5u42rYfLY3oZPvqTj-4" value="Posicionado_M&lt;div&gt;Led1 = OFF&lt;/div&gt;&lt;div&gt;Led2 = ON&lt;/div&gt;&lt;div&gt;Led3 = OFF&lt;/div&gt;&lt;div&gt;Motor = OFF&lt;/div&gt;&lt;div&gt;Punz&lt;span style=&quot;background-color: rgb(255, 255, 255); color: rgb(0, 29, 53); font-family: &amp;quot;Google Sans&amp;quot;, Arial, sans-serif; text-align: left;&quot;&gt;ó&lt;/span&gt;&lt;span style=&quot;color: light-dark(rgb(0, 0, 0), rgb(255, 255, 255)); background-color: transparent;&quot;&gt;n = OFF&lt;/span&gt;&lt;/div&gt;&lt;div&gt;&lt;div&gt;&lt;span style=&quot;background-color: transparent; color: light-dark(rgb(0, 0, 0), rgb(255, 255, 255));&quot;&gt;Led4&amp;nbsp; = OFF&lt;/span&gt;&lt;/div&gt;&lt;div&gt;&lt;span style=&quot;background-color: transparent; color: light-dark(rgb(0, 0, 0), rgb(255, 255, 255));&quot;&gt;Led5 = ON&lt;/span&gt;&lt;/div&gt;&lt;div&gt;&lt;span style=&quot;background-color: transparent; color: light-dark(rgb(0, 0, 0), rgb(255, 255, 255));&quot;&gt;Led6 = OFF&lt;/span&gt;&lt;/div&gt;&lt;/div&gt;" style="ellipse;whiteSpace=wrap;html=1;" parent="1" vertex="1">
          <mxGeometry x="509.5" y="440" width="120" height="170" as="geometry" />
        </mxCell>
        <mxCell id="-_c5u42rYfLY3oZPvqTj-6" value="" style="endArrow=classic;html=1;rounded=0;exitX=0.642;exitY=0.988;exitDx=0;exitDy=0;exitPerimeter=0;entryX=0.383;entryY=0.05;entryDx=0;entryDy=0;entryPerimeter=0;" parent="1" source="X-DnCRYXjDNg1M-mOFa8-2" target="-_c5u42rYfLY3oZPvqTj-4" edge="1">
          <mxGeometry width="50" height="50" relative="1" as="geometry">
            <mxPoint x="570" y="270" as="sourcePoint" />
            <mxPoint x="620" y="220" as="targetPoint" />
          </mxGeometry>
        </mxCell>
        <mxCell id="-_c5u42rYfLY3oZPvqTj-9" value="Punzonado_L&lt;div&gt;Led1 = OFF&lt;/div&gt;&lt;div&gt;Led2 = ON&lt;/div&gt;&lt;div&gt;Led3 = OFF&lt;/div&gt;&lt;div&gt;&lt;div&gt;Motor = OFF&lt;/div&gt;&lt;div&gt;Punz&lt;span style=&quot;background-color: rgb(255, 255, 255); color: rgb(0, 29, 53); font-family: &amp;quot;Google Sans&amp;quot;, Arial, sans-serif; text-align: left;&quot;&gt;ó&lt;/span&gt;&lt;span style=&quot;color: light-dark(rgb(0, 0, 0), rgb(255, 255, 255)); background-color: transparent;&quot;&gt;n = ON&lt;/span&gt;&lt;/div&gt;&lt;/div&gt;&lt;div&gt;&lt;div&gt;&lt;span style=&quot;background-color: transparent; color: light-dark(rgb(0, 0, 0), rgb(255, 255, 255));&quot;&gt;Led4&amp;nbsp; = ON&lt;/span&gt;&lt;/div&gt;&lt;div&gt;&lt;span style=&quot;background-color: transparent; color: light-dark(rgb(0, 0, 0), rgb(255, 255, 255));&quot;&gt;Led5 = OFF&lt;/span&gt;&lt;/div&gt;&lt;div&gt;&lt;span style=&quot;background-color: transparent; color: light-dark(rgb(0, 0, 0), rgb(255, 255, 255));&quot;&gt;Led6 = OFF&lt;/span&gt;&lt;/div&gt;&lt;/div&gt;" style="ellipse;whiteSpace=wrap;html=1;" parent="1" vertex="1">
          <mxGeometry x="359.5" y="670" width="120" height="190" as="geometry" />
        </mxCell>
        <mxCell id="-_c5u42rYfLY3oZPvqTj-10" value="Punzonado_M&lt;div&gt;Led1 = OFF&lt;/div&gt;&lt;div&gt;Led2 = ON&lt;/div&gt;&lt;div&gt;Led3 = OFF&lt;/div&gt;&lt;div&gt;&lt;div&gt;Motor = OFF&lt;/div&gt;&lt;div&gt;Punz&lt;span style=&quot;background-color: rgb(255, 255, 255); color: rgb(0, 29, 53); font-family: &amp;quot;Google Sans&amp;quot;, Arial, sans-serif; text-align: left;&quot;&gt;ó&lt;/span&gt;&lt;span style=&quot;color: light-dark(rgb(0, 0, 0), rgb(255, 255, 255)); background-color: transparent;&quot;&gt;n = ON&lt;/span&gt;&lt;/div&gt;&lt;/div&gt;&lt;div&gt;&lt;div&gt;&lt;span style=&quot;background-color: transparent; color: light-dark(rgb(0, 0, 0), rgb(255, 255, 255));&quot;&gt;Led4&amp;nbsp; = OFF&lt;/span&gt;&lt;/div&gt;&lt;div&gt;&lt;span style=&quot;background-color: transparent; color: light-dark(rgb(0, 0, 0), rgb(255, 255, 255));&quot;&gt;Led5 = ON&lt;/span&gt;&lt;/div&gt;&lt;div&gt;&lt;span style=&quot;background-color: transparent; color: light-dark(rgb(0, 0, 0), rgb(255, 255, 255));&quot;&gt;Led6 = OFF&lt;/span&gt;&lt;/div&gt;&lt;/div&gt;" style="ellipse;whiteSpace=wrap;html=1;" parent="1" vertex="1">
          <mxGeometry x="509.5" y="680" width="120" height="170" as="geometry" />
        </mxCell>
        <mxCell id="-_c5u42rYfLY3oZPvqTj-11" value="Punzonado_P&lt;div&gt;Led1 = OFF&lt;/div&gt;&lt;div&gt;Led2 = ON&lt;/div&gt;&lt;div&gt;Led3 = OFF&lt;/div&gt;&lt;div&gt;&lt;div&gt;Motor = OFF&lt;/div&gt;&lt;div&gt;Punz&lt;span style=&quot;background-color: rgb(255, 255, 255); color: rgb(0, 29, 53); font-family: &amp;quot;Google Sans&amp;quot;, Arial, sans-serif; text-align: left;&quot;&gt;ó&lt;/span&gt;&lt;span style=&quot;color: light-dark(rgb(0, 0, 0), rgb(255, 255, 255)); background-color: transparent;&quot;&gt;n = ON&lt;/span&gt;&lt;/div&gt;&lt;/div&gt;&lt;div&gt;&lt;div&gt;&lt;span style=&quot;background-color: transparent; color: light-dark(rgb(0, 0, 0), rgb(255, 255, 255));&quot;&gt;Led4&amp;nbsp; = OFF&lt;/span&gt;&lt;/div&gt;&lt;div&gt;&lt;span style=&quot;background-color: transparent; color: light-dark(rgb(0, 0, 0), rgb(255, 255, 255));&quot;&gt;Led5 = OFF&lt;/span&gt;&lt;/div&gt;&lt;div&gt;&lt;span style=&quot;background-color: transparent; color: light-dark(rgb(0, 0, 0), rgb(255, 255, 255));&quot;&gt;Led6 = ON&lt;/span&gt;&lt;/div&gt;&lt;/div&gt;" style="ellipse;whiteSpace=wrap;html=1;" parent="1" vertex="1">
          <mxGeometry x="660" y="675" width="120" height="180" as="geometry" />
        </mxCell>
        <mxCell id="-_c5u42rYfLY3oZPvqTj-12" value="" style="endArrow=classic;html=1;rounded=0;exitX=0.5;exitY=1;exitDx=0;exitDy=0;entryX=0.583;entryY=0;entryDx=0;entryDy=0;entryPerimeter=0;" parent="1" source="-_c5u42rYfLY3oZPvqTj-4" target="-_c5u42rYfLY3oZPvqTj-10" edge="1">
          <mxGeometry width="50" height="50" relative="1" as="geometry">
            <mxPoint x="510" y="420" as="sourcePoint" />
            <mxPoint x="560" y="370" as="targetPoint" />
          </mxGeometry>
        </mxCell>
        <mxCell id="-_c5u42rYfLY3oZPvqTj-15" value="Descarga_L&lt;div&gt;Led1 = OFF&lt;/div&gt;&lt;div&gt;Led2 = ON&lt;/div&gt;&lt;div&gt;Led3 = OFF&lt;/div&gt;&lt;div&gt;&lt;div&gt;Motor = ON&lt;/div&gt;&lt;div&gt;Punz&lt;span style=&quot;background-color: rgb(255, 255, 255); color: rgb(0, 29, 53); font-family: &amp;quot;Google Sans&amp;quot;, Arial, sans-serif; text-align: left;&quot;&gt;ó&lt;/span&gt;&lt;span style=&quot;color: light-dark(rgb(0, 0, 0), rgb(255, 255, 255)); background-color: transparent;&quot;&gt;n = OFF&lt;/span&gt;&lt;/div&gt;&lt;/div&gt;&lt;div&gt;&lt;div&gt;&lt;span style=&quot;background-color: transparent; color: light-dark(rgb(0, 0, 0), rgb(255, 255, 255));&quot;&gt;Led4&amp;nbsp; = ON&lt;/span&gt;&lt;/div&gt;&lt;div&gt;&lt;span style=&quot;background-color: transparent; color: light-dark(rgb(0, 0, 0), rgb(255, 255, 255));&quot;&gt;Led5 = OFF&lt;/span&gt;&lt;/div&gt;&lt;div&gt;&lt;span style=&quot;background-color: transparent; color: light-dark(rgb(0, 0, 0), rgb(255, 255, 255));&quot;&gt;Led6 = OFF&lt;/span&gt;&lt;/div&gt;&lt;/div&gt;" style="ellipse;whiteSpace=wrap;html=1;" parent="1" vertex="1">
          <mxGeometry x="350" y="960" width="120" height="170" as="geometry" />
        </mxCell>
        <mxCell id="-_c5u42rYfLY3oZPvqTj-16" value="Descarga_M&lt;div&gt;Led1 = OFF&lt;/div&gt;&lt;div&gt;Led2 = ON&lt;/div&gt;&lt;div&gt;Led3 = OFF&lt;/div&gt;&lt;div&gt;&lt;div&gt;Motor = ON&lt;/div&gt;&lt;div&gt;Punz&lt;span style=&quot;background-color: rgb(255, 255, 255); color: rgb(0, 29, 53); font-family: &amp;quot;Google Sans&amp;quot;, Arial, sans-serif; text-align: left;&quot;&gt;ó&lt;/span&gt;&lt;span style=&quot;color: light-dark(rgb(0, 0, 0), rgb(255, 255, 255)); background-color: transparent;&quot;&gt;n = OFF&lt;/span&gt;&lt;/div&gt;&lt;/div&gt;&lt;div&gt;&lt;div&gt;&lt;span style=&quot;background-color: transparent; color: light-dark(rgb(0, 0, 0), rgb(255, 255, 255));&quot;&gt;Led4&amp;nbsp; = OFF&lt;/span&gt;&lt;/div&gt;&lt;div&gt;&lt;span style=&quot;background-color: transparent; color: light-dark(rgb(0, 0, 0), rgb(255, 255, 255));&quot;&gt;Led5 = ON&lt;/span&gt;&lt;/div&gt;&lt;div&gt;&lt;span style=&quot;background-color: transparent; color: light-dark(rgb(0, 0, 0), rgb(255, 255, 255));&quot;&gt;Led6 = OFF&lt;/span&gt;&lt;/div&gt;&lt;/div&gt;" style="ellipse;whiteSpace=wrap;html=1;" parent="1" vertex="1">
          <mxGeometry x="495" y="950" width="120" height="160" as="geometry" />
        </mxCell>
        <mxCell id="-_c5u42rYfLY3oZPvqTj-17" value="Descarga_P&lt;div&gt;Led1 = OFF&lt;/div&gt;&lt;div&gt;Led2 = ON&lt;/div&gt;&lt;div&gt;Led3 = OFF&lt;/div&gt;&lt;div&gt;&lt;div&gt;Motor = ON&lt;/div&gt;&lt;div&gt;Punz&lt;span style=&quot;background-color: rgb(255, 255, 255); color: rgb(0, 29, 53); font-family: &amp;quot;Google Sans&amp;quot;, Arial, sans-serif; text-align: left;&quot;&gt;ó&lt;/span&gt;&lt;span style=&quot;color: light-dark(rgb(0, 0, 0), rgb(255, 255, 255)); background-color: transparent;&quot;&gt;n = OFF&lt;/span&gt;&lt;/div&gt;&lt;/div&gt;&lt;div&gt;&lt;div&gt;&lt;span style=&quot;background-color: transparent; color: light-dark(rgb(0, 0, 0), rgb(255, 255, 255));&quot;&gt;Led4&amp;nbsp; = OFF&lt;/span&gt;&lt;/div&gt;&lt;div&gt;&lt;span style=&quot;background-color: transparent; color: light-dark(rgb(0, 0, 0), rgb(255, 255, 255));&quot;&gt;Led5 = OFF&lt;/span&gt;&lt;/div&gt;&lt;div&gt;&lt;span style=&quot;background-color: transparent; color: light-dark(rgb(0, 0, 0), rgb(255, 255, 255));&quot;&gt;Led6 = ON&lt;/span&gt;&lt;/div&gt;&lt;/div&gt;" style="ellipse;whiteSpace=wrap;html=1;" parent="1" vertex="1">
          <mxGeometry x="630" y="942.5" width="120" height="175" as="geometry" />
        </mxCell>
        <mxCell id="-_c5u42rYfLY3oZPvqTj-18" value="" style="endArrow=classic;html=1;rounded=0;entryX=0.583;entryY=0;entryDx=0;entryDy=0;entryPerimeter=0;exitX=0.5;exitY=1;exitDx=0;exitDy=0;" parent="1" source="-_c5u42rYfLY3oZPvqTj-9" target="-_c5u42rYfLY3oZPvqTj-15" edge="1">
          <mxGeometry width="50" height="50" relative="1" as="geometry">
            <mxPoint x="400" y="590" as="sourcePoint" />
            <mxPoint x="450" y="540" as="targetPoint" />
          </mxGeometry>
        </mxCell>
        <mxCell id="-_c5u42rYfLY3oZPvqTj-19" value="" style="endArrow=classic;html=1;rounded=0;entryX=0.5;entryY=0;entryDx=0;entryDy=0;exitX=0.5;exitY=1;exitDx=0;exitDy=0;" parent="1" source="-_c5u42rYfLY3oZPvqTj-10" target="-_c5u42rYfLY3oZPvqTj-16" edge="1">
          <mxGeometry width="50" height="50" relative="1" as="geometry">
            <mxPoint x="560" y="600" as="sourcePoint" />
            <mxPoint x="610" y="550" as="targetPoint" />
          </mxGeometry>
        </mxCell>
        <mxCell id="-_c5u42rYfLY3oZPvqTj-20" value="" style="endArrow=classic;html=1;rounded=0;entryX=0.583;entryY=0.05;entryDx=0;entryDy=0;entryPerimeter=0;exitX=0.5;exitY=1;exitDx=0;exitDy=0;" parent="1" source="-_c5u42rYfLY3oZPvqTj-11" target="-_c5u42rYfLY3oZPvqTj-17" edge="1">
          <mxGeometry width="50" height="50" relative="1" as="geometry">
            <mxPoint x="730" y="600" as="sourcePoint" />
            <mxPoint x="780" y="550" as="targetPoint" />
          </mxGeometry>
        </mxCell>
        <mxCell id="-_c5u42rYfLY3oZPvqTj-21" value="" style="curved=1;endArrow=classic;html=1;rounded=0;exitX=0;exitY=0.5;exitDx=0;exitDy=0;" parent="1" source="-_c5u42rYfLY3oZPvqTj-22" target="MZe7glPEBlxegg6NGC8d-1" edge="1">
          <mxGeometry width="50" height="50" relative="1" as="geometry">
            <mxPoint x="340" y="780" as="sourcePoint" />
            <mxPoint x="240" y="610" as="targetPoint" />
            <Array as="points">
              <mxPoint x="200" y="1160" />
              <mxPoint x="220" y="810" />
              <mxPoint x="190" y="610" />
            </Array>
          </mxGeometry>
        </mxCell>
        <mxCell id="-_c5u42rYfLY3oZPvqTj-22" value="Fin de ciclo&lt;div&gt;Led1 = OFF&lt;/div&gt;&lt;div&gt;Led2 = OFF&lt;/div&gt;&lt;div&gt;Led3 = ON&lt;/div&gt;&lt;div&gt;&lt;div&gt;Motor = OFF&lt;/div&gt;&lt;div&gt;Punz&lt;span style=&quot;background-color: rgb(255, 255, 255); color: rgb(0, 29, 53); font-family: &amp;quot;Google Sans&amp;quot;, Arial, sans-serif; text-align: left;&quot;&gt;ó&lt;/span&gt;&lt;span style=&quot;color: light-dark(rgb(0, 0, 0), rgb(255, 255, 255)); background-color: transparent;&quot;&gt;n = OFF&lt;/span&gt;&lt;/div&gt;&lt;/div&gt;&lt;div&gt;&lt;div&gt;&lt;span style=&quot;background-color: transparent; color: light-dark(rgb(0, 0, 0), rgb(255, 255, 255));&quot;&gt;Led4&amp;nbsp; = OFF&lt;/span&gt;&lt;/div&gt;&lt;div&gt;&lt;span style=&quot;background-color: transparent; color: light-dark(rgb(0, 0, 0), rgb(255, 255, 255));&quot;&gt;Led5 = OFF&lt;/span&gt;&lt;/div&gt;&lt;div&gt;&lt;span style=&quot;background-color: transparent; color: light-dark(rgb(0, 0, 0), rgb(255, 255, 255));&quot;&gt;Led6 = OFF&lt;/span&gt;&lt;/div&gt;&lt;/div&gt;" style="ellipse;whiteSpace=wrap;html=1;" parent="1" vertex="1">
          <mxGeometry x="474" y="1210" width="120" height="160" as="geometry" />
        </mxCell>
        <mxCell id="-_c5u42rYfLY3oZPvqTj-23" value="" style="endArrow=classic;html=1;rounded=0;exitX=0.642;exitY=0.988;exitDx=0;exitDy=0;exitPerimeter=0;" parent="1" source="-_c5u42rYfLY3oZPvqTj-15" target="-_c5u42rYfLY3oZPvqTj-22" edge="1">
          <mxGeometry width="50" height="50" relative="1" as="geometry">
            <mxPoint x="470" y="770" as="sourcePoint" />
            <mxPoint x="520" y="720" as="targetPoint" />
          </mxGeometry>
        </mxCell>
        <mxCell id="-_c5u42rYfLY3oZPvqTj-24" value="" style="endArrow=classic;html=1;rounded=0;entryX=0.5;entryY=0;entryDx=0;entryDy=0;" parent="1" source="-_c5u42rYfLY3oZPvqTj-16" target="-_c5u42rYfLY3oZPvqTj-22" edge="1">
          <mxGeometry width="50" height="50" relative="1" as="geometry">
            <mxPoint x="560" y="790" as="sourcePoint" />
            <mxPoint x="610" y="740" as="targetPoint" />
          </mxGeometry>
        </mxCell>
        <mxCell id="-_c5u42rYfLY3oZPvqTj-25" value="" style="endArrow=classic;html=1;rounded=0;exitX=0.667;exitY=0.988;exitDx=0;exitDy=0;exitPerimeter=0;" parent="1" source="-_c5u42rYfLY3oZPvqTj-17" target="-_c5u42rYfLY3oZPvqTj-22" edge="1">
          <mxGeometry width="50" height="50" relative="1" as="geometry">
            <mxPoint x="720" y="770" as="sourcePoint" />
            <mxPoint x="770" y="720" as="targetPoint" />
          </mxGeometry>
        </mxCell>
        <mxCell id="sZm33CsDDL4SHJ3uxDzK-1" value="UART = &#39;1&#39; /&lt;div&gt;Boton1 = ON&lt;/div&gt;" style="text;html=1;align=center;verticalAlign=middle;whiteSpace=wrap;rounded=0;" parent="1" vertex="1">
          <mxGeometry x="329.5" y="230" width="81" height="30" as="geometry" />
        </mxCell>
        <mxCell id="sZm33CsDDL4SHJ3uxDzK-3" value="&lt;span style=&quot;color: rgb(0, 0, 0); font-family: Helvetica; font-size: 12px; font-style: normal; font-variant-ligatures: normal; font-variant-caps: normal; font-weight: 400; letter-spacing: normal; orphans: 2; text-indent: 0px; text-transform: none; widows: 2; word-spacing: 0px; -webkit-text-stroke-width: 0px; white-space: normal; text-decoration-thickness: initial; text-decoration-style: initial; text-decoration-color: initial; float: none; background-color: light-dark(#ffffff, var(--ge-dark-color, #121212)); display: inline !important;&quot;&gt;UART = &#39;2&#39; /&lt;/span&gt;&lt;div style=&quot;&quot;&gt;&lt;span style=&quot;color: rgb(0, 0, 0); font-family: Helvetica; font-size: 12px; font-style: normal; font-variant-ligatures: normal; font-variant-caps: normal; font-weight: 400; letter-spacing: normal; orphans: 2; text-indent: 0px; text-transform: none; widows: 2; word-spacing: 0px; -webkit-text-stroke-width: 0px; white-space: normal; text-decoration-thickness: initial; text-decoration-style: initial; text-decoration-color: initial; float: none; background-color: light-dark(#ffffff, var(--ge-dark-color, #121212)); display: inline !important;&quot;&gt;Boton2 = ON&lt;/span&gt;&lt;/div&gt;" style="text;whiteSpace=wrap;html=1;align=center;" parent="1" vertex="1">
          <mxGeometry x="479.5" y="140" width="80" height="40" as="geometry" />
        </mxCell>
        <mxCell id="sZm33CsDDL4SHJ3uxDzK-4" value="&lt;span style=&quot;color: rgb(0, 0, 0); font-family: Helvetica; font-size: 12px; font-style: normal; font-variant-ligatures: normal; font-variant-caps: normal; font-weight: 400; letter-spacing: normal; orphans: 2; text-indent: 0px; text-transform: none; widows: 2; word-spacing: 0px; -webkit-text-stroke-width: 0px; white-space: normal; text-decoration-thickness: initial; text-decoration-style: initial; text-decoration-color: initial; float: none; background-color: light-dark(#ffffff, var(--ge-dark-color, #121212)); display: inline !important;&quot;&gt;UART = &#39;3&#39; /&lt;/span&gt;&lt;div&gt;&lt;span style=&quot;color: rgb(0, 0, 0); font-family: Helvetica; font-size: 12px; font-style: normal; font-variant-ligatures: normal; font-variant-caps: normal; font-weight: 400; letter-spacing: normal; orphans: 2; text-indent: 0px; text-transform: none; widows: 2; word-spacing: 0px; -webkit-text-stroke-width: 0px; white-space: normal; text-decoration-thickness: initial; text-decoration-style: initial; text-decoration-color: initial; float: none; background-color: light-dark(#ffffff, var(--ge-dark-color, #121212)); display: inline !important;&quot;&gt;Boton3 = ON&lt;/span&gt;&lt;/div&gt;" style="text;whiteSpace=wrap;html=1;align=center;" parent="1" vertex="1">
          <mxGeometry x="570" y="60" width="90" height="20" as="geometry" />
        </mxCell>
        <mxCell id="sZm33CsDDL4SHJ3uxDzK-8" value="T = 3 s" style="text;html=1;align=center;verticalAlign=middle;whiteSpace=wrap;rounded=0;" parent="1" vertex="1">
          <mxGeometry x="449.5" y="1130" width="60" height="30" as="geometry" />
        </mxCell>
        <mxCell id="sZm33CsDDL4SHJ3uxDzK-9" value="T = 5 s" style="text;html=1;align=center;verticalAlign=middle;whiteSpace=wrap;rounded=0;" parent="1" vertex="1">
          <mxGeometry x="650" y="1180" width="60" height="30" as="geometry" />
        </mxCell>
        <mxCell id="sZm33CsDDL4SHJ3uxDzK-10" value="T = 4 s" style="text;html=1;align=center;verticalAlign=middle;whiteSpace=wrap;rounded=0;" parent="1" vertex="1">
          <mxGeometry x="550" y="1130" width="60" height="30" as="geometry" />
        </mxCell>
        <mxCell id="sZm33CsDDL4SHJ3uxDzK-11" value="T = 3 s" style="text;html=1;align=center;verticalAlign=middle;whiteSpace=wrap;rounded=0;" parent="1" vertex="1">
          <mxGeometry x="500" y="880" width="60" height="30" as="geometry" />
        </mxCell>
        <mxCell id="sZm33CsDDL4SHJ3uxDzK-12" value="T = 2 s" style="text;html=1;align=center;verticalAlign=middle;whiteSpace=wrap;rounded=0;" parent="1" vertex="1">
          <mxGeometry x="350" y="900" width="60" height="30" as="geometry" />
        </mxCell>
        <mxCell id="sZm33CsDDL4SHJ3uxDzK-13" value="T = 4 s" style="text;html=1;align=center;verticalAlign=middle;whiteSpace=wrap;rounded=0;" parent="1" vertex="1">
          <mxGeometry x="650" y="880" width="60" height="30" as="geometry" />
        </mxCell>
        <mxCell id="sZm33CsDDL4SHJ3uxDzK-16" value="Posicionado_L&lt;div&gt;Led1 = OFF&lt;/div&gt;&lt;div&gt;Led2 = ON&lt;/div&gt;&lt;div&gt;Led3 = OFF&lt;/div&gt;&lt;div&gt;Motor = OFF&lt;/div&gt;&lt;div&gt;Punz&lt;span style=&quot;background-color: rgb(255, 255, 255); color: rgb(0, 29, 53); font-family: &amp;quot;Google Sans&amp;quot;, Arial, sans-serif; text-align: left;&quot;&gt;ó&lt;/span&gt;&lt;span style=&quot;color: light-dark(rgb(0, 0, 0), rgb(255, 255, 255)); background-color: transparent;&quot;&gt;n = OFF&lt;/span&gt;&lt;/div&gt;&lt;div&gt;&lt;div&gt;&lt;span style=&quot;background-color: transparent; color: light-dark(rgb(0, 0, 0), rgb(255, 255, 255));&quot;&gt;Led4&amp;nbsp; = ON&lt;/span&gt;&lt;/div&gt;&lt;div&gt;&lt;span style=&quot;background-color: transparent; color: light-dark(rgb(0, 0, 0), rgb(255, 255, 255));&quot;&gt;Led5 = OFF&lt;/span&gt;&lt;/div&gt;&lt;div&gt;&lt;span style=&quot;background-color: transparent; color: light-dark(rgb(0, 0, 0), rgb(255, 255, 255));&quot;&gt;Led6 = OFF&lt;/span&gt;&lt;/div&gt;&lt;/div&gt;" style="ellipse;whiteSpace=wrap;html=1;" parent="1" vertex="1">
          <mxGeometry x="329.5" y="460" width="120" height="170" as="geometry" />
        </mxCell>
        <mxCell id="sZm33CsDDL4SHJ3uxDzK-17" value="Posicionado_P&lt;div&gt;Led1 = OFF&lt;/div&gt;&lt;div&gt;Led2 = ON&lt;/div&gt;&lt;div&gt;Led3 = OFF&lt;/div&gt;&lt;div&gt;Motor = OFF&lt;/div&gt;&lt;div&gt;Punz&lt;span style=&quot;background-color: rgb(255, 255, 255); color: rgb(0, 29, 53); font-family: &amp;quot;Google Sans&amp;quot;, Arial, sans-serif; text-align: left;&quot;&gt;ó&lt;/span&gt;&lt;span style=&quot;color: light-dark(rgb(0, 0, 0), rgb(255, 255, 255)); background-color: transparent;&quot;&gt;n = OFF&lt;/span&gt;&lt;/div&gt;&lt;div&gt;&lt;div&gt;&lt;span style=&quot;background-color: transparent; color: light-dark(rgb(0, 0, 0), rgb(255, 255, 255));&quot;&gt;Led4&amp;nbsp; = OFF&lt;/span&gt;&lt;/div&gt;&lt;div&gt;&lt;span style=&quot;background-color: transparent; color: light-dark(rgb(0, 0, 0), rgb(255, 255, 255));&quot;&gt;Led5 = OFF&lt;/span&gt;&lt;/div&gt;&lt;div&gt;&lt;span style=&quot;background-color: transparent; color: light-dark(rgb(0, 0, 0), rgb(255, 255, 255));&quot;&gt;Led6 = ON&lt;/span&gt;&lt;/div&gt;&lt;/div&gt;" style="ellipse;whiteSpace=wrap;html=1;" parent="1" vertex="1">
          <mxGeometry x="670" y="440" width="120" height="180" as="geometry" />
        </mxCell>
        <mxCell id="sZm33CsDDL4SHJ3uxDzK-18" value="" style="endArrow=classic;html=1;rounded=0;exitX=0.558;exitY=1.018;exitDx=0;exitDy=0;exitPerimeter=0;entryX=0.417;entryY=0;entryDx=0;entryDy=0;entryPerimeter=0;" parent="1" source="X-DnCRYXjDNg1M-mOFa8-1" target="sZm33CsDDL4SHJ3uxDzK-17" edge="1">
          <mxGeometry width="50" height="50" relative="1" as="geometry">
            <mxPoint x="710" y="240" as="sourcePoint" />
            <mxPoint x="760" y="190" as="targetPoint" />
          </mxGeometry>
        </mxCell>
        <mxCell id="sZm33CsDDL4SHJ3uxDzK-19" value="" style="endArrow=classic;html=1;rounded=0;exitX=0.5;exitY=1;exitDx=0;exitDy=0;entryX=0.667;entryY=0;entryDx=0;entryDy=0;entryPerimeter=0;" parent="1" source="MZe7glPEBlxegg6NGC8d-3" target="sZm33CsDDL4SHJ3uxDzK-16" edge="1">
          <mxGeometry width="50" height="50" relative="1" as="geometry">
            <mxPoint x="430" y="400" as="sourcePoint" />
            <mxPoint x="480" y="350" as="targetPoint" />
          </mxGeometry>
        </mxCell>
        <mxCell id="sZm33CsDDL4SHJ3uxDzK-20" value="" style="endArrow=classic;html=1;rounded=0;exitX=0.45;exitY=1.027;exitDx=0;exitDy=0;exitPerimeter=0;" parent="1" source="sZm33CsDDL4SHJ3uxDzK-16" target="-_c5u42rYfLY3oZPvqTj-9" edge="1">
          <mxGeometry width="50" height="50" relative="1" as="geometry">
            <mxPoint x="310" y="590" as="sourcePoint" />
            <mxPoint x="360" y="540" as="targetPoint" />
          </mxGeometry>
        </mxCell>
        <mxCell id="sZm33CsDDL4SHJ3uxDzK-21" value="" style="endArrow=classic;html=1;rounded=0;exitX=0.5;exitY=1;exitDx=0;exitDy=0;entryX=0.583;entryY=0.017;entryDx=0;entryDy=0;entryPerimeter=0;" parent="1" source="sZm33CsDDL4SHJ3uxDzK-17" target="-_c5u42rYfLY3oZPvqTj-11" edge="1">
          <mxGeometry width="50" height="50" relative="1" as="geometry">
            <mxPoint x="730" y="470" as="sourcePoint" />
            <mxPoint x="780" y="420" as="targetPoint" />
          </mxGeometry>
        </mxCell>
        <mxCell id="sZm33CsDDL4SHJ3uxDzK-22" value="Sensor = ON" style="text;html=1;align=center;verticalAlign=middle;whiteSpace=wrap;rounded=0;" parent="1" vertex="1">
          <mxGeometry x="335" y="420" width="90" height="30" as="geometry" />
        </mxCell>
        <mxCell id="sZm33CsDDL4SHJ3uxDzK-23" value="Sensor = ON" style="text;html=1;align=center;verticalAlign=middle;whiteSpace=wrap;rounded=0;" parent="1" vertex="1">
          <mxGeometry x="520" y="370" width="90" height="30" as="geometry" />
        </mxCell>
        <mxCell id="sZm33CsDDL4SHJ3uxDzK-24" value="Sensor = ON" style="text;html=1;align=center;verticalAlign=middle;whiteSpace=wrap;rounded=0;" parent="1" vertex="1">
          <mxGeometry x="737" y="320" width="90" height="30" as="geometry" />
        </mxCell>
      </root>
    </mxGraphModel>
  </diagram>
</mxfile>
